<svg width="200" height="144" viewBox="0 0 200 144" fill="none" xmlns="http://www.w3.org/2000/svg">
<g clip-path="url(#clip0_60_6)">
<g filter="url(#filter0_d_60_6)">
<path d="M114.005 68.7129C114.695 68.6437 115.246 68.9098 115.66 69.5111C116.126 70.1072 116.396 70.964 116.469 72.0816C116.605 74.1572 116.209 75.8575 115.281 77.1827C112.937 80.5249 110.52 83.1779 108.031 85.1418C105.539 87.0524 102.515 88.186 98.9598 88.5426C95.5104 88.8886 92.5042 88.2527 89.9409 86.6349C87.4308 85.0118 84.9396 82.0475 82.4672 77.7422C80.4787 74.2989 78.9245 71.7764 77.8046 70.1745C76.6812 68.5194 75.5909 67.3699 74.5338 66.726C73.5297 66.0767 72.306 65.7441 70.8627 65.7282C70.7238 66.8671 70.3438 70.4407 69.7228 76.4492C69.4728 79.1527 69.3139 80.8025 69.2461 81.3986C68.9283 84.6982 68.031 87.3059 66.5541 89.2218C65.0737 91.0845 62.715 92.1783 59.4779 92.503C55.9224 92.8596 52.6969 92.1385 49.8013 90.3398C46.9553 88.4825 44.6673 85.7657 42.9371 82.1894C41.2035 78.5599 40.1797 74.3503 39.8656 69.5606C39.2794 60.6198 40.3124 52.7487 42.9646 45.9472C45.6698 39.1404 49.6968 33.7546 55.0455 29.7896C60.4438 25.7661 66.8046 23.3871 74.1279 22.6525C79.2223 22.1415 83.5448 22.4847 87.0953 23.6821C90.6459 24.8794 93.3327 26.7527 95.1557 29.3018C97.0318 31.8457 98.0815 34.8206 98.3049 38.2266C98.5003 41.2069 97.9758 44.2058 96.7314 47.2234C95.5366 50.1824 93.6044 52.8939 90.9349 55.358C88.2655 57.8221 84.9491 59.7886 80.9858 61.2576C83.5783 61.6939 85.6151 62.6146 87.096 64.0195C88.577 65.4245 90.105 67.5479 91.6802 70.3897C93.3754 73.4338 94.9883 75.6291 96.5188 76.9755C98.1024 78.3166 99.8494 78.8913 101.76 78.6997C103.458 78.5294 105.04 77.8082 106.505 76.5363C107.968 75.2111 109.776 73.0477 111.929 70.0461C112.517 69.2371 113.209 68.7927 114.005 68.7129ZM59.8726 66.7502C58.0684 66.9312 56.7934 66.6305 56.0477 65.8482C55.355 65.0606 54.9738 64.1346 54.904 63.0702C54.8203 61.7929 55.152 60.7419 55.8991 59.917C56.6994 59.0867 57.6301 58.6184 58.6915 58.5119L60.6815 58.3123C61.1886 53.0117 61.6898 48.4348 62.185 44.5817C62.648 41.0533 64.7634 39.1001 68.5312 38.7222C71.556 38.4188 73.1574 39.6241 73.3354 42.3383C73.3737 42.9237 73.3769 43.3788 73.3447 43.7034L71.8256 57.1945C74.6807 56.7474 77.2357 55.7947 79.4903 54.3364C81.7981 52.8729 83.5703 50.9809 84.807 48.6605C86.0968 46.3348 86.6509 43.7883 86.4695 41.0209C86.2496 37.6681 84.936 35.1482 82.5285 33.4612C80.121 31.7742 76.7149 31.1516 72.3104 31.5934C67.1098 32.115 62.6315 33.8767 58.8755 36.8783C55.1691 39.8214 52.3955 43.9566 50.5548 49.2839C48.7105 54.5579 48.0274 60.8405 48.5055 68.1315C48.7288 71.5375 49.2656 74.4299 50.116 76.8088C50.9664 79.1877 51.9359 80.9386 53.0244 82.0615C54.1129 83.1844 55.1083 83.7006 56.0104 83.6101C56.7003 83.5409 57.2348 83.1391 57.614 82.4047C58.0462 81.6649 58.3444 80.51 58.5085 78.9401L59.8726 66.7502Z" fill="url(#paint0_radial_60_6)"/>
</g>
<g filter="url(#filter1_d_60_6)">
<path d="M130.765 87.5154L130.633 87.5195C131.26 86.5055 131.647 85.0128 131.629 83.3509L131.326 55.3743C131.293 52.3414 129.924 49.8971 128.268 49.9151L103.745 50.1805C102.164 50.1976 100.837 52.8814 100.837 52.8814L130.765 87.5154Z" fill="#FEA262"/>
<path d="M131.629 83.351L131.326 55.3744C131.294 52.3415 129.924 49.8972 128.268 49.9151L103.745 50.1806C102.812 50.1907 101.897 51.0902 101.263 52.1527C100.649 53.181 98.6753 55.5792 98.6753 55.5792L99.287 92.8229L127.764 92.5147L128.224 92.3386C128.224 92.3386 130.072 88.9703 130.647 87.7157C131.343 86.1989 131.647 85.0129 131.629 83.351Z" fill="#3C3C6E"/>
<path d="M126.188 93.678L100.679 93.9541C98.9378 93.9729 97.4983 91.4035 97.4637 88.2151L97.1628 60.4145C97.1283 57.226 98.5119 54.6261 100.253 54.6072L125.763 54.3311C127.504 54.3123 128.943 56.8817 128.978 60.0702L129.279 87.8709C129.313 91.0591 127.93 93.6591 126.188 93.678Z" fill="#1C616F"/>
<path d="M98.0204 88.2338L97.7189 60.3831C97.6906 57.7712 98.8241 55.6412 100.251 55.6257L125.787 55.3493C127.214 55.3339 128.393 57.4388 128.421 60.0507L128.723 87.9015C128.751 90.5133 127.618 92.6433 126.191 92.6588L100.654 92.9352C99.228 92.9508 98.0486 90.8458 98.0204 88.2338Z" fill="#86D674"/>
<path d="M97.4144 64.3803C97.2974 64.9437 99.0673 65.9899 99.167 62.4511C99.2424 59.7758 99.9581 58.4309 101.521 58.2229C102.565 58.0839 102.635 55.1544 102.635 55.1544C102.635 55.1544 99.5955 53.8501 98.1662 56.731C96.7368 59.6119 97.4144 64.3803 97.4144 64.3803Z" fill="#1C616F"/>
<path d="M128.679 64.0419C128.808 64.6026 127.061 65.6869 126.885 62.1511C126.752 59.4781 126.007 58.149 124.44 57.9749C123.393 57.8586 123.26 54.9312 123.26 54.9312C123.26 54.9312 126.27 53.5614 127.762 56.4107C129.253 59.26 128.679 64.0419 128.679 64.0419Z" fill="#1C616F"/>
<path d="M128.893 83.812C129.01 83.2487 127.24 82.2024 127.14 85.7412C127.065 88.4165 126.349 89.7614 124.787 89.9694C123.742 90.1084 123.672 93.0379 123.672 93.0379C123.672 93.0379 126.712 94.3422 128.141 91.4613C129.571 88.5804 128.893 83.812 128.893 83.812Z" fill="#1C616F"/>
<path d="M97.6283 84.1505C97.4991 83.5898 99.246 82.5055 99.4223 86.0413C99.5556 88.7143 100.3 90.0435 101.867 90.2175C102.914 90.3339 103.047 93.2612 103.047 93.2612C103.047 93.2612 100.037 94.631 98.5455 91.7817C97.0541 88.9324 97.6283 84.1505 97.6283 84.1505Z" fill="#1C616F"/>
<path d="M130.136 88.9414C130.135 88.9414 130.135 88.9414 130.134 88.9414C130.077 88.9403 130.03 88.8541 130.03 88.7485C130.029 88.5147 129.973 65.3043 129.918 60.2078C129.859 54.781 128.989 52.5767 126.915 52.5992C124.647 52.6237 100.976 53.2581 100.738 53.2645C100.682 53.2691 100.632 53.1817 100.63 53.0763C100.629 52.9707 100.674 52.884 100.732 52.8825C100.97 52.8761 124.641 52.2416 126.911 52.2171C128.069 52.2045 128.881 52.8724 129.393 54.2585C129.864 55.5304 130.097 57.4201 130.127 60.2054C130.182 65.305 130.238 88.5182 130.238 88.752C130.239 88.8568 130.193 88.9407 130.136 88.9414Z" fill="#1C616F"/>
<path d="M103.22 51.7311L102.315 53.0017C102.221 53.1349 102.275 53.4147 102.395 53.4134L106.252 53.3716C106.28 53.3713 106.308 53.3527 106.33 53.3189L107.158 52.0491C107.248 51.9117 107.192 51.6421 107.074 51.6433L103.294 51.6843C103.267 51.6847 103.241 51.701 103.22 51.7311Z" fill="#B5B5B5"/>
<path d="M123.028 51.532L122.234 52.6485C122.107 52.8261 122.179 53.1992 122.34 53.1974L126.056 53.1572C126.095 53.1568 126.132 53.1321 126.161 53.087L126.889 51.9711C127.008 51.7878 126.934 51.4284 126.777 51.4301L123.128 51.4696C123.092 51.4701 123.057 51.4919 123.028 51.532Z" fill="#B5B5B5"/>
<path d="M113.477 54.4639L111.6 54.4843L112.023 93.6403L113.901 93.62L113.477 54.4639Z" fill="#62170F"/>
<path d="M111.599 54.4842L113.477 54.4639L116.866 50.0387L115.046 50.0584L111.599 54.4842Z" fill="#877B76"/>
<path d="M111.057 52.5797L108.763 52.6046C108.532 52.6071 108.342 52.267 108.337 51.845C108.333 51.423 108.516 51.0789 108.746 51.0764L111.041 51.0516C111.271 51.0491 111.462 51.3892 111.467 51.8112C111.471 52.2331 111.288 52.5773 111.057 52.5797Z" fill="#9B908E"/>
<path d="M120.55 52.4771L118.255 52.5019C118.024 52.5044 117.834 52.1644 117.829 51.7424C117.825 51.3204 118.008 50.9762 118.238 50.9738L120.533 50.9489C120.764 50.9464 120.954 51.2865 120.959 51.7085C120.963 52.1305 120.78 52.4746 120.55 52.4771Z" fill="#9B908E"/>
<path d="M110.427 52.165C110.396 52.1653 110.364 52.155 110.334 52.1327C110.206 52.04 110.142 51.7759 110.19 51.5429C110.223 51.3863 110.999 47.6938 111.416 46.5794C111.505 46.3404 111.697 46.093 112.483 45.9019C113.642 45.62 115.476 45.5952 116.806 45.6658C118.095 45.7343 119.699 45.9174 120.019 46.4021C120.625 47.3222 120.196 50.713 120.05 51.7302C120.015 51.972 119.88 52.1135 119.747 52.0467C119.615 51.9799 119.536 51.7297 119.57 51.488C119.831 49.6654 119.948 47.4665 119.705 47.0984C119.49 46.8492 117.913 46.5603 115.749 46.5414C113.201 46.5192 111.995 46.8807 111.819 47.1187C111.432 48.1732 110.662 51.8411 110.654 51.8785C110.617 52.0557 110.525 52.1639 110.427 52.165Z" fill="#9B908E"/>
<path d="M112.286 45.9317C112.134 46.7683 112.402 47.7232 112.789 47.7211L118.928 47.688C119.134 47.6868 119.317 47.4014 119.398 46.9561C119.551 46.1196 119.282 45.1646 118.896 45.1667L112.756 45.1999C112.55 45.201 112.367 45.4864 112.286 45.9317Z" fill="#1C616F"/>
<path d="M113.871 61.9098L111.263 61.938C110.802 61.943 110.421 61.2629 110.412 60.419C110.403 59.5751 110.769 58.8869 111.23 58.882L113.838 58.8537C114.299 58.8487 114.68 59.5288 114.689 60.3727C114.698 61.2166 114.332 61.9048 113.871 61.9098Z" fill="#1C616F"/>
<path d="M111.253 60.9829C111.425 60.981 111.563 60.723 111.559 60.4065C111.556 60.0901 111.413 59.8351 111.24 59.8369C111.067 59.8388 110.93 60.0969 110.933 60.4133C110.937 60.7297 111.08 60.9847 111.253 60.9829Z" fill="#9B908E"/>
<path d="M113.541 60.385C113.538 60.0686 113.675 59.8104 113.848 59.8085C114.021 59.8066 114.164 60.0617 114.167 60.3782C114.171 60.6946 114.033 60.9527 113.86 60.9546C113.688 60.9564 113.545 60.7014 113.541 60.385Z" fill="#9B908E"/>
<path d="M114.165 89.0325L111.557 89.0607C111.096 89.0657 110.715 88.3856 110.706 87.5417C110.697 86.6979 111.063 86.0096 111.524 86.0046L114.131 85.9764C114.592 85.9714 114.973 86.6516 114.983 87.4954C114.992 88.3393 114.625 89.0275 114.165 89.0325Z" fill="#1C616F"/>
<path d="M111.227 87.536C111.223 87.2196 111.361 86.9615 111.534 86.9596C111.706 86.9578 111.849 87.2128 111.853 87.5292C111.856 87.8456 111.719 88.1037 111.546 88.1056C111.373 88.1074 111.23 87.8524 111.227 87.536Z" fill="#9B908E"/>
<path d="M113.835 87.5078C113.831 87.1914 113.969 86.9333 114.142 86.9314C114.314 86.9296 114.457 87.1846 114.461 87.501C114.464 87.8174 114.327 88.0755 114.154 88.0774C113.981 88.0792 113.838 87.8242 113.835 87.5078Z" fill="#9B908E"/>
<path d="M112.978 46.8859C112.856 46.8872 112.754 46.71 112.749 46.4858C112.744 46.2589 112.841 46.0702 112.965 46.064L118.804 45.7796C118.928 45.7787 119.032 45.9528 119.037 46.1797C119.042 46.4065 118.946 46.5953 118.822 46.6015L112.983 46.8859C112.981 46.8859 112.98 46.8859 112.978 46.8859Z" fill="#40AD3D"/>
<path d="M124.384 70.1147L123.288 70.1266C122.698 70.133 122.21 69.262 122.198 68.1812L122.149 63.691C122.138 62.6102 122.607 61.7288 123.197 61.7224L124.293 61.7106C124.883 61.7042 125.371 62.5751 125.383 63.656L125.432 68.1462C125.443 69.227 124.974 70.1084 124.384 70.1147Z" fill="#3E904D"/>
</g>
</g>
<defs>
<filter id="filter0_d_60_6" x="32.4339" y="18.7561" width="89.5933" height="91.1514" filterUnits="userSpaceOnUse" color-interpolation-filters="sRGB">
<feFlood flood-opacity="0" result="BackgroundImageFix"/>
<feColorMatrix in="SourceAlpha" type="matrix" values="0 0 0 0 0 0 0 0 0 0 0 0 0 0 0 0 0 0 127 0" result="hardAlpha"/>
<feOffset dy="11"/>
<feGaussianBlur stdDeviation="2.3"/>
<feComposite in2="hardAlpha" operator="out"/>
<feColorMatrix type="matrix" values="0 0 0 0 0 0 0 0 0 0 0 0 0 0 0 0 0 0 0.25 0"/>
<feBlend mode="normal" in2="BackgroundImageFix" result="effect1_dropShadow_60_6"/>
<feBlend mode="normal" in="SourceGraphic" in2="effect1_dropShadow_60_6" result="shape"/>
</filter>
<filter id="filter1_d_60_6" x="92.8621" y="45.1667" width="43.0678" height="63.0875" filterUnits="userSpaceOnUse" color-interpolation-filters="sRGB">
<feFlood flood-opacity="0" result="BackgroundImageFix"/>
<feColorMatrix in="SourceAlpha" type="matrix" values="0 0 0 0 0 0 0 0 0 0 0 0 0 0 0 0 0 0 127 0" result="hardAlpha"/>
<feOffset dy="10"/>
<feGaussianBlur stdDeviation="2.15"/>
<feComposite in2="hardAlpha" operator="out"/>
<feColorMatrix type="matrix" values="0 0 0 0 0 0 0 0 0 0 0 0 0 0 0 0 0 0 0.25 0"/>
<feBlend mode="normal" in2="BackgroundImageFix" result="effect1_dropShadow_60_6"/>
<feBlend mode="normal" in="SourceGraphic" in2="effect1_dropShadow_60_6" result="shape"/>
</filter>
<radialGradient id="paint0_radial_60_6" cx="0" cy="0" r="1" gradientUnits="userSpaceOnUse" gradientTransform="translate(68.5155 36.1102) rotate(86.2487) scale(49.1579 90.6984)">
<stop stop-color="#FFF022"/>
<stop offset="0.5" stop-color="#D0F31F"/>
<stop offset="1" stop-color="#FAE900"/>
</radialGradient>
<clipPath id="clip0_60_6">
<rect width="186" height="120" fill="white" transform="translate(0 2.01318) rotate(-0.620141)"/>
</clipPath>
</defs>
</svg>
